<svg width="25" height="24" viewBox="0 0 25 24" fill="none" xmlns="http://www.w3.org/2000/svg">
<path d="M9.89513 19.3711L10.4796 20.6856C10.6533 21.0768 10.9369 21.4093 11.2958 21.6426C11.6548 21.8759 12.0737 22.0001 12.5018 22C12.9299 22.0001 13.3488 21.8759 13.7078 21.6426C14.0667 21.4093 14.3503 21.0768 14.524 20.6856L15.1085 19.3711C15.3165 18.9047 15.6665 18.5159 16.1085 18.26C16.5533 18.0034 17.0678 17.8941 17.5785 17.9478L19.0085 18.1C19.4341 18.145 19.8637 18.0656 20.2452 17.8713C20.6266 17.6771 20.9435 17.3763 21.1574 17.0056C21.3715 16.635 21.4736 16.2103 21.4511 15.7829C21.4286 15.3555 21.2826 14.9438 21.0307 14.5978L20.184 13.4344C19.8825 13.0171 19.7215 12.5148 19.724 12C19.7239 11.4866 19.8865 10.9864 20.1885 10.5711L21.0351 9.40778C21.287 9.06175 21.433 8.65007 21.4555 8.22267C21.478 7.79528 21.376 7.37054 21.1618 7C20.9479 6.62923 20.631 6.32849 20.2496 6.13423C19.8682 5.93997 19.4386 5.86053 19.0129 5.90556L17.5829 6.05778C17.0722 6.11141 16.5577 6.00212 16.1129 5.74556C15.67 5.48825 15.32 5.09736 15.1129 4.62889L14.524 3.31444C14.3503 2.92317 14.0667 2.59072 13.7078 2.3574C13.3488 2.12408 12.9299 1.99993 12.5018 2C12.0737 1.99993 11.6548 2.12408 11.2958 2.3574C10.9369 2.59072 10.6533 2.92317 10.4796 3.31444L9.89513 4.62889C9.68806 5.09736 9.33801 5.48825 8.89513 5.74556C8.45035 6.00212 7.9358 6.11141 7.42513 6.05778L5.99069 5.90556C5.56502 5.86053 5.13543 5.93997 4.754 6.13423C4.37258 6.32849 4.05571 6.62923 3.8418 7C3.62762 7.37054 3.52558 7.79528 3.54807 8.22267C3.57055 8.65007 3.71659 9.06175 3.96847 9.40778L4.81513 10.5711C5.11707 10.9864 5.27967 11.4866 5.27958 12C5.27967 12.5134 5.11707 13.0137 4.81513 13.4289L3.96847 14.5922C3.71659 14.9382 3.57055 15.3499 3.54807 15.7773C3.52558 16.2047 3.62762 16.6295 3.8418 17C4.05592 17.3706 4.37283 17.6712 4.7542 17.8654C5.13557 18.0596 5.56505 18.1392 5.99069 18.0944L7.42069 17.9422C7.93136 17.8886 8.4459 17.9979 8.89069 18.2544C9.33522 18.511 9.6869 18.902 9.89513 19.3711Z" stroke="#535054" stroke-width="1.5" stroke-linecap="round" stroke-linejoin="round"/>
<path d="M12.5 15C14.1569 15 15.5 13.6569 15.5 12C15.5 10.3431 14.1569 9 12.5 9C10.8432 9 9.50001 10.3431 9.50001 12C9.50001 13.6569 10.8432 15 12.5 15Z" stroke="#535054" stroke-width="1.5" stroke-linecap="round" stroke-linejoin="round"/>
</svg>
