<svg width="25" height="24" viewBox="0 0 25 24" fill="none" xmlns="http://www.w3.org/2000/svg">
<path d="M12.5 15C9.32993 15 6.5108 16.5306 4.716 18.906C4.32971 19.4172 4.13656 19.6728 4.14288 20.0183C4.14776 20.2852 4.31536 20.6219 4.52537 20.7867C4.79719 21 5.17387 21 5.92724 21H19.0728C19.8261 21 20.2028 21 20.4746 20.7867C20.6846 20.6219 20.8522 20.2852 20.8571 20.0183C20.8634 19.6728 20.6703 19.4172 20.284 18.906C18.4892 16.5306 15.6701 15 12.5 15Z" stroke="#535054" stroke-width="1.5" stroke-linecap="round" stroke-linejoin="round"/>
<path d="M12.5 12C14.9853 12 17 9.98528 17 7.5C17 5.01472 14.9853 3 12.5 3C10.0147 3 8 5.01472 8 7.5C8 9.98528 10.0147 12 12.5 12Z" stroke="#535054" stroke-width="1.5" stroke-linecap="round" stroke-linejoin="round"/>
</svg>
